<svg width="16" height="10" viewBox="0 0 16 10" fill="none" xmlns="http://www.w3.org/2000/svg">
<path d="M7.5625 9.62891C7.89648 9.62891 8.17773 9.49707 8.43262 9.24219L14.6992 2.82617C14.9014 2.61523 15.0068 2.36914 15.0068 2.07031C15.0068 1.45508 14.5234 0.97168 13.9258 0.97168C13.6357 0.97168 13.3545 1.09473 13.1348 1.31445L7.57129 7.03613L1.99023 1.31445C1.7793 1.10352 1.50684 0.97168 1.19922 0.97168C0.601562 0.97168 0.118164 1.45508 0.118164 2.07031C0.118164 2.36035 0.232422 2.61523 0.43457 2.82617L6.70117 9.24219C6.96484 9.50586 7.2373 9.62891 7.5625 9.62891Z" fill="black"/>
</svg>
