<svg width="36" height="36" viewBox="0 0 36 36" fill="none" xmlns="http://www.w3.org/2000/svg"><circle cx="18" cy="18" r="18" fill="#fff"/><path d="M24.344 14.75a6.952 6.952 0 001.625-1.688 6.151 6.151 0 01-1.875.5 3.206 3.206 0 001.437-1.812 6.932 6.932 0 01-2.062.813 3.281 3.281 0 00-2.407-1.032 3.28 3.28 0 00-3.28 3.281c0 .25.03.5.093.75a9.52 9.52 0 01-6.781-3.437 3.191 3.191 0 00-.438 1.656c0 1.125.563 2.125 1.469 2.719-.531-.031-1.063-.156-1.5-.406v.031a3.285 3.285 0 002.625 3.219c-.25.062-.563.125-.844.125-.219 0-.406-.032-.625-.063a3.265 3.265 0 003.063 2.282 6.597 6.597 0 01-4.063 1.406c-.281 0-.531-.032-.781-.063 1.438.938 3.156 1.469 5.031 1.469 6.031 0 9.313-4.969 9.313-9.313v-.437z" fill="#000"/></svg>