<svg width="36" height="36" viewBox="0 0 36 36" fill="none" xmlns="http://www.w3.org/2000/svg"><circle cx="18" cy="18" r="18" fill="#fff"/><path d="M27.5 16.823a2.112 2.112 0 00-2.104-2.116c-.566 0-1.079.229-1.456.597-1.433-.953-3.372-1.56-5.519-1.637l1.174-3.735 3.18.753-.005.046c0 .955.772 1.73 1.72 1.73.95 0 1.72-.775 1.72-1.73C26.21 9.777 25.44 9 24.49 9c-.727 0-1.348.46-1.6 1.103l-3.426-.812a.293.293 0 00-.348.2l-1.31 4.165c-2.247.027-4.282.638-5.78 1.62a2.08 2.08 0 00-1.423-.57 2.112 2.112 0 00-1.06 3.934 3.811 3.811 0 00-.068.686C9.475 22.454 13.28 25 17.96 25c4.68 0 8.487-2.546 8.487-5.674 0-.22-.023-.436-.06-.648a2.11 2.11 0 001.113-1.855zm-13.636 1.453c0-.694.562-1.26 1.253-1.26.69 0 1.251.566 1.251 1.26 0 .694-.56 1.26-1.251 1.26-.69 0-1.253-.566-1.253-1.26zm7.174 3.735c-.631.635-1.622.943-3.028.943l-.01-.002-.01.002c-1.407 0-2.397-.308-3.028-.943a.297.297 0 010-.418.293.293 0 01.417 0c.514.517 1.369.769 2.61.769l.011.002.01-.002c1.242 0 2.097-.252 2.611-.77a.293.293 0 01.417 0 .298.298 0 010 .42zm-.15-2.476c-.69 0-1.252-.565-1.252-1.259s.562-1.26 1.252-1.26 1.252.566 1.252 1.26c0 .694-.562 1.26-1.252 1.26z" fill="#000"/></svg>