<svg width="16" height="12" viewBox="0 0 16 12" fill="none" xmlns="http://www.w3.org/2000/svg">
<path d="M5.671 11.1994L0.914003 6.44239C0.776789 6.30512 0.699707 6.11898 0.699707 5.92489C0.699707 5.7308 0.776789 5.54466 0.914003 5.40739L1.949 4.37339C2.08627 4.23618 2.27241 4.15909 2.4665 4.15909C2.66059 4.15909 2.84673 4.23618 2.984 4.37339L6.184 7.57339L13.047 0.71039C13.1843 0.573175 13.3704 0.496094 13.5645 0.496094C13.7586 0.496094 13.9447 0.573175 14.082 0.71039L15.117 1.74539C15.2542 1.88266 15.3313 2.0688 15.3313 2.26289C15.3313 2.45698 15.2542 2.64312 15.117 2.78039L6.706 11.1994C6.56873 11.3366 6.38259 11.4137 6.1885 11.4137C5.99441 11.4137 5.80827 11.3366 5.671 11.1994Z" fill="#0071BC"/>
</svg>
