<svg width="13" height="13" viewBox="0 0 13 13" fill="none" xmlns="http://www.w3.org/2000/svg">
<path d="M0.359375 11.1094C0.0234375 11.4531 0.0078125 12.0625 0.367188 12.4141C0.726562 12.7656 1.32812 12.7578 1.67188 12.4219L6.10938 7.98438L10.5391 12.4219C10.8906 12.7656 11.4922 12.7734 11.8438 12.4141C12.1953 12.0547 12.2031 11.4609 11.8516 11.1094L7.41406 6.67188L11.8516 2.24219C12.2031 1.89062 12.2031 1.28906 11.8438 0.9375C11.4844 0.585938 10.8906 0.585938 10.5391 0.929688L6.10938 5.36719L1.67188 0.929688C1.32812 0.59375 0.71875 0.578125 0.367188 0.9375C0.015625 1.29688 0.0234375 1.89844 0.359375 2.23438L4.79688 6.67188L0.359375 11.1094Z" fill="black"/>
</svg>
