<svg width="14" height="8" viewBox="0 0 14 8" fill="none" xmlns="http://www.w3.org/2000/svg">
<path d="M6.72119 0.101562C6.42432 0.101562 6.17432 0.218749 5.94776 0.445312L0.377444 6.14844C0.197757 6.33594 0.104007 6.55469 0.104007 6.82031C0.104006 7.36719 0.533694 7.79687 1.06494 7.79687C1.32276 7.79687 1.57276 7.6875 1.76807 7.49219L6.71338 2.40625L11.6743 7.49219C11.8618 7.67969 12.104 7.79687 12.3774 7.79687C12.9087 7.79687 13.3384 7.36719 13.3384 6.82031C13.3384 6.5625 13.2368 6.33594 13.0571 6.14844L7.48682 0.445312C7.25244 0.210937 7.01026 0.101562 6.72119 0.101562Z" fill="#333333"/>
</svg>
