<svg width="15" height="8" viewBox="0 0 15 8" fill="none" xmlns="http://www.w3.org/2000/svg">
<path d="M7.5 7.78125C7.79688 7.78125 8.04688 7.66406 8.27344 7.4375L13.8438 1.73438C14.0234 1.54688 14.1172 1.32812 14.1172 1.0625C14.1172 0.515625 13.6875 0.0859375 13.1562 0.0859375C12.8984 0.0859375 12.6484 0.195312 12.4531 0.390625L7.50781 5.47656L2.54688 0.390625C2.35938 0.203125 2.11719 0.0859375 1.84375 0.0859375C1.3125 0.0859375 0.882812 0.515625 0.882812 1.0625C0.882812 1.32031 0.984375 1.54688 1.16406 1.73438L6.73438 7.4375C6.96875 7.67188 7.21094 7.78125 7.5 7.78125Z" fill="#333333"/>
</svg>
