<svg width="7" height="12" viewBox="0 0 7 12" fill="none" xmlns="http://www.w3.org/2000/svg">
    <path d="M6.90039 6.33105C6.90039 6.14648 6.83203 5.98926 6.69531 5.8457L1.5957 0.862305C1.47266 0.739258 1.31543 0.677734 1.1377 0.677734C0.768555 0.677734 0.488281 0.958008 0.488281 1.32715C0.488281 1.49805 0.563477 1.66895 0.679688 1.78516L5.32812 6.33105L0.679688 10.8701C0.563477 10.9932 0.488281 11.1504 0.488281 11.335C0.488281 11.7041 0.768555 11.9844 1.1377 11.9844C1.31543 11.9844 1.47266 11.916 1.5957 11.7998L6.69531 6.80957C6.83203 6.67285 6.90039 6.51562 6.90039 6.33105Z" fill="black"/>
</svg>
