<svg width="13" height="7" viewBox="0 0 13 7" fill="none" xmlns="http://www.w3.org/2000/svg">
<path d="M6.4375 6.93372C6.69727 6.93372 6.91602 6.83118 7.11426 6.63293L11.9883 1.6427C12.1455 1.47864 12.2275 1.28723 12.2275 1.05481C12.2275 0.576294 11.8516 0.200317 11.3867 0.200317C11.1611 0.200317 10.9424 0.296021 10.7715 0.466919L6.44434 4.91711L2.10352 0.466919C1.93945 0.302856 1.72754 0.200317 1.48828 0.200317C1.02344 0.200317 0.647461 0.576294 0.647461 1.05481C0.647461 1.2804 0.736328 1.47864 0.893555 1.6427L5.76758 6.63293C5.97266 6.83801 6.18457 6.93372 6.4375 6.93372Z" fill="black"/>
</svg>
