<svg width="8" height="14" viewBox="0 0 8 14" fill="none" xmlns="http://www.w3.org/2000/svg">
<path d="M1.50977 13.1211C1.73535 13.1211 1.91992 13.0391 2.07715 12.8887L7.39551 7.69336C7.58008 7.50195 7.67578 7.30371 7.67578 7.05762C7.67578 6.81836 7.58691 6.60645 7.39551 6.42871L2.07715 1.22656C1.91992 1.07617 1.73535 0.994141 1.50977 0.994141C1.05176 0.994141 0.696289 1.34961 0.696289 1.80078C0.696289 2.01953 0.791992 2.23145 0.942383 2.38867L5.73438 7.06445L0.942383 11.7266C0.785156 11.8906 0.696289 12.0889 0.696289 12.3145C0.696289 12.7656 1.05176 13.1211 1.50977 13.1211Z" fill="#33CCFF"/>
</svg>
