<svg width="8" height="14" viewBox="0 0 8 14" fill="none" xmlns="http://www.w3.org/2000/svg">
<path d="M1.55664 13.1211C1.78223 13.1211 1.9668 13.0391 2.12402 12.8887L7.44238 7.69336C7.62695 7.50195 7.72266 7.30371 7.72266 7.05762C7.72266 6.81836 7.63379 6.60645 7.44238 6.42871L2.12402 1.22656C1.9668 1.07617 1.78223 0.994141 1.55664 0.994141C1.09863 0.994141 0.743164 1.34961 0.743164 1.80078C0.743164 2.01953 0.838867 2.23145 0.989258 2.38867L5.78125 7.06445L0.989258 11.7266C0.832031 11.8906 0.743164 12.0889 0.743164 12.3145C0.743164 12.7656 1.09863 13.1211 1.55664 13.1211Z" fill="#ABABAB"/>
</svg>
