<svg width="15" height="16" viewBox="0 0 15 16" fill="none" xmlns="http://www.w3.org/2000/svg">
<path d="M7.5 15.311C11.4717 15.311 14.7393 12.0435 14.7393 8.07178C14.7393 4.09326 11.4717 0.825684 7.49316 0.825684C3.51465 0.825684 0.253906 4.09326 0.253906 8.07178C0.253906 12.0435 3.52148 15.311 7.5 15.311ZM6.74121 11.5103C6.43359 11.5103 6.18066 11.3667 5.96875 11.1001L4.36914 9.19971C4.20508 9.0083 4.14355 8.83057 4.14355 8.62549C4.14355 8.19482 4.49219 7.85303 4.92285 7.85303C5.16895 7.85303 5.36035 7.95557 5.54492 8.17432L6.72754 9.60986L9.37305 5.4126C9.55762 5.11865 9.7832 4.96826 10.0566 4.96826C10.4805 4.96826 10.8633 5.28271 10.8633 5.71338C10.8633 5.88428 10.7949 6.07568 10.6719 6.25342L7.49316 11.0864C7.31543 11.353 7.04199 11.5103 6.74121 11.5103Z" fill="black"/>
</svg>
