<svg width="9" height="10" viewBox="0 0 9 10" fill="none" xmlns="http://www.w3.org/2000/svg">
<path opacity="0.8" d="M8.79102 6.84961L8.79688 1.78711C8.79688 1.20703 8.4043 0.814453 7.81836 0.814453H2.75C2.19336 0.814453 1.78906 1.23633 1.78906 1.73438C1.78906 2.23828 2.2168 2.61328 2.75586 2.61328H4.50195L5.80273 2.55469L4.94141 3.33398L0.734375 7.53516C0.523438 7.75195 0.417969 7.99805 0.417969 8.24414C0.417969 8.73047 0.869141 9.1875 1.36133 9.1875C1.60742 9.1875 1.85352 9.08203 2.06445 8.87109L6.27148 4.66406L7.04492 3.80273L6.99219 5.05664V6.84961C6.99219 7.39453 7.37305 7.81055 7.87695 7.81055C8.38086 7.81055 8.79102 7.38867 8.79102 6.84961Z" fill="#003366"/>
</svg>
