<svg width="8" height="13" viewBox="0 0 8 13" fill="none" xmlns="http://www.w3.org/2000/svg">
<path d="M5.7207 11.8955C5.87793 12.0459 6.06934 12.1279 6.28809 12.1279C6.74609 12.1279 7.10156 11.7725 7.10156 11.3213C7.10156 11.0957 7.0127 10.8906 6.85547 10.7334L2.07031 6.05762L6.85547 1.39551C7.0127 1.23828 7.10156 1.02637 7.10156 0.807617C7.10156 0.356445 6.74609 0.000976562 6.28809 0.000976562C6.06934 0.000976562 5.87793 0.0830078 5.72754 0.233398L0.40918 5.42871C0.217773 5.60645 0.12207 5.8252 0.12207 6.06445C0.12207 6.30371 0.217773 6.50879 0.402344 6.69336L5.7207 11.8955Z" fill="#33CCFF"/>
</svg>
