<svg width="8" height="13" viewBox="0 0 8 13" fill="none" xmlns="http://www.w3.org/2000/svg">
<path d="M6.3418 11.8955C6.49902 12.0459 6.69043 12.1279 6.90918 12.1279C7.36719 12.1279 7.72266 11.7725 7.72266 11.3213C7.72266 11.0957 7.63379 10.8906 7.47656 10.7334L2.69141 6.05762L7.47656 1.39551C7.63379 1.23828 7.72266 1.02637 7.72266 0.807617C7.72266 0.356445 7.36719 0.000976562 6.90918 0.000976562C6.69043 0.000976562 6.49902 0.0830078 6.34863 0.233398L1.03027 5.42871C0.838867 5.60645 0.743164 5.8252 0.743164 6.06445C0.743164 6.30371 0.838867 6.50879 1.02344 6.69336L6.3418 11.8955Z" fill="#ABABAB"/>
</svg>
