<svg width="68" height="64" viewBox="0 0 68 64" fill="none" xmlns="http://www.w3.org/2000/svg">
    <path fill-rule="evenodd" clip-rule="evenodd" d="M34.0026 1.55566C16.5143 1.55566 2.33594 13.2668 2.33594 27.7151C2.48471 35.001 5.92754 41.8269 11.6983 46.2773L5.08956 62.1354L22.6356 52.1094C26.3112 53.2793 30.1454 53.8747 34.0026 53.8745C51.4909 53.8745 65.6693 42.1634 65.6693 27.7151C65.6693 13.2668 51.4909 1.55566 34.0026 1.55566Z" stroke="#003366" stroke-width="3" stroke-linecap="square" stroke-linejoin="round"/>
    <path d="M18.8633 22.2162C18.8633 19.1747 21.329 16.709 24.3705 16.709C27.4121 16.709 29.8778 19.1747 29.8778 22.2162" stroke="#003366" stroke-width="3" stroke-linecap="square" stroke-linejoin="round"/>
    <path d="M49.1473 22.2162C49.1473 19.1747 46.6816 16.709 43.6401 16.709C40.5985 16.709 38.1328 19.1747 38.1328 22.2162" stroke="#003366" stroke-width="3" stroke-linecap="square" stroke-linejoin="round"/>
    <path d="M40.8931 31.8442C40.8931 35.6462 37.811 38.7283 34.0091 38.7283C30.2071 38.7283 27.125 35.6462 27.125 31.8442" stroke="#003366" stroke-width="3" stroke-linecap="square" stroke-linejoin="round"/>
</svg>
