<svg width="18" height="17" viewBox="0 0 18 17" fill="none" xmlns="http://www.w3.org/2000/svg">
<path fill-rule="evenodd" clip-rule="evenodd" d="M9.16699 0.944336C4.74891 0.944336 1.16699 3.90295 1.16699 7.55303C1.20458 9.39369 2.07434 11.1181 3.53221 12.2424L1.86264 16.2487L6.29534 13.7158C7.2239 14.0114 8.19253 14.1618 9.16699 14.1617C13.5851 14.1617 17.167 11.2031 17.167 7.55303C17.167 3.90295 13.5851 0.944336 9.16699 0.944336Z" stroke="#33CCFF" stroke-width="0.8" stroke-linecap="square" stroke-linejoin="round"/>
<path d="M5.3418 6.16328C5.3418 5.39488 5.9647 4.77197 6.7331 4.77197C7.5015 4.77197 8.12441 5.39488 8.12441 6.16328" stroke="#33CCFF" stroke-width="0.8" stroke-linecap="square" stroke-linejoin="round"/>
<path d="M12.9935 6.16328C12.9935 5.39488 12.3706 4.77197 11.6022 4.77197C10.8338 4.77197 10.2109 5.39488 10.2109 6.16328" stroke="#33CCFF" stroke-width="0.8" stroke-linecap="square" stroke-linejoin="round"/>
<path d="M10.9079 8.5957C10.9079 9.5562 10.1293 10.3348 9.16882 10.3348C8.20832 10.3348 7.42969 9.5562 7.42969 8.5957" stroke="#33CCFF" stroke-width="0.8" stroke-linecap="square" stroke-linejoin="round"/>
</svg>
