<svg width="66" height="66" viewBox="0 0 66 66" fill="none" xmlns="http://www.w3.org/2000/svg">
<circle cx="33" cy="33" r="30.5" fill="#33CCFF" stroke="#003366" stroke-width="5"/>
<path fill-rule="evenodd" clip-rule="evenodd" d="M33 19C24.7161 19 18 24.5474 18 31.3913C18.0705 34.8425 19.7013 38.0759 22.4348 40.1839L19.3043 47.6957L27.6157 42.9465C29.3567 43.5007 31.1729 43.7827 33 43.7826C41.2839 43.7826 48 38.2352 48 31.3913C48 24.5474 41.2839 19 33 19Z" stroke="#003366" stroke-width="2" stroke-linecap="square" stroke-linejoin="round"/>
<path d="M25.8262 28.7864C25.8262 27.3457 26.9941 26.1777 28.4349 26.1777C29.8756 26.1777 31.0436 27.3457 31.0436 28.7864" stroke="#003366" stroke-width="2" stroke-linecap="square" stroke-linejoin="round"/>
<path d="M40.1748 28.7864C40.1748 27.3457 39.0068 26.1777 37.5661 26.1777C36.1254 26.1777 34.9574 27.3457 34.9574 28.7864" stroke="#003366" stroke-width="2" stroke-linecap="square" stroke-linejoin="round"/>
<path d="M36.2627 33.3477C36.2627 35.1486 34.8028 36.6085 33.0018 36.6085C31.2009 36.6085 29.741 35.1486 29.741 33.3477" stroke="#003366" stroke-width="2" stroke-linecap="square" stroke-linejoin="round"/>
</svg>
