<svg width="40" height="40" viewBox="0 0 40 40" fill="none" xmlns="http://www.w3.org/2000/svg">
<path class="satisfied_face" d="M20 3.33333C29.19 3.33333 36.6667 10.81 36.6667 20C36.6667 29.19 29.19 36.6667 20 36.6667C10.81 36.6667 3.33333 29.19 3.33333 20C3.33333 10.81 10.81 3.33333 20 3.33333ZM20 0C8.955 0 0 8.955 0 20C0 31.045 8.955 40 20 40C31.045 40 40 31.045 40 20C40 8.955 31.045 0 20 0ZM30 23.3333H10C10.5517 25.775 14.7117 30 20.0017 30C25.225 30 29.445 25.7983 30 23.3333ZM30 16.67L28.7417 17.5133C28.7417 17.5133 27.9033 15.9333 25.8317 15.9333C23.82 15.9333 22.9233 17.5133 22.9233 17.5133L21.6667 16.67C22.135 15.4233 23.675 13.3333 25.8317 13.3333C27.99 13.3333 29.5283 15.4233 30 16.67ZM18.3333 16.67L17.075 17.5133C17.075 17.5133 16.2367 15.9333 14.165 15.9333C12.1533 15.9333 11.2567 17.5133 11.2567 17.5133L10 16.67C10.4683 15.4233 12.0083 13.3333 14.165 13.3333C16.3233 13.3333 17.8617 15.4233 18.3333 16.67Z" fill="#B8BABC"/>
</svg>
