<svg width="41" height="40" viewBox="0 0 41 40" fill="none" xmlns="http://www.w3.org/2000/svg">
<path d="M20.5 3.33333C29.69 3.33333 37.1667 10.81 37.1667 20C37.1667 29.19 29.69 36.6667 20.5 36.6667C11.31 36.6667 3.83333 29.19 3.83333 20C3.83333 10.81 11.31 3.33333 20.5 3.33333ZM20.5 0C9.455 0 0.5 8.955 0.5 20C0.5 31.045 9.455 40 20.5 40C31.545 40 40.5 31.045 40.5 20C40.5 8.955 31.545 0 20.5 0ZM30.5 23.3333H10.5C11.0517 25.775 15.2117 30 20.5017 30C25.725 30 29.945 25.7983 30.5 23.3333ZM30.5 16.67L29.2417 17.5133C29.2417 17.5133 28.4033 15.9333 26.3317 15.9333C24.32 15.9333 23.4233 17.5133 23.4233 17.5133L22.1667 16.67C22.635 15.4233 24.175 13.3333 26.3317 13.3333C28.49 13.3333 30.0283 15.4233 30.5 16.67ZM18.8333 16.67L17.575 17.5133C17.575 17.5133 16.7367 15.9333 14.665 15.9333C12.6533 15.9333 11.7567 17.5133 11.7567 17.5133L10.5 16.67C10.9683 15.4233 12.5083 13.3333 14.665 13.3333C16.8233 13.3333 18.3617 15.4233 18.8333 16.67Z" fill="#66CD51"/>
</svg>
