<svg width="41" height="40" viewBox="0 0 41 40" fill="none" xmlns="http://www.w3.org/2000/svg">
<path d="M20.5 3.33333C29.69 3.33333 37.1667 10.81 37.1667 20C37.1667 29.19 29.69 36.6667 20.5 36.6667C11.31 36.6667 3.83333 29.19 3.83333 20C3.83333 10.81 11.31 3.33333 20.5 3.33333ZM20.5 0C9.455 0 0.5 8.955 0.5 20C0.5 31.045 9.455 40 20.5 40C31.545 40 40.5 31.045 40.5 20C40.5 8.955 31.545 0 20.5 0ZM20.5017 23.3333C16.615 23.3333 13.5933 26.06 12.0133 27.995L12.7983 28.9617C14.9417 27.5967 17.3517 26.7817 20.5017 26.7817C23.6517 26.7817 26.0617 27.5967 28.205 28.9617L28.99 27.995C27.41 26.06 24.3883 23.3333 20.5017 23.3333ZM14.6667 13.3333C13.2867 13.3333 12.1667 14.4517 12.1667 15.8333C12.1667 17.215 13.2867 18.3333 14.6667 18.3333C16.0467 18.3333 17.1667 17.215 17.1667 15.8333C17.1667 14.4517 16.0467 13.3333 14.6667 13.3333ZM26.3333 13.3333C24.9533 13.3333 23.8333 14.4517 23.8333 15.8333C23.8333 17.215 24.9533 18.3333 26.3333 18.3333C27.7133 18.3333 28.8333 17.215 28.8333 15.8333C28.8333 14.4517 27.7133 13.3333 26.3333 13.3333Z" fill="#F01204"/>
</svg>
