<svg width="40" height="40" viewBox="0 0 40 40" fill="none" xmlns="http://www.w3.org/2000/svg">
<path class="unsatisfied_face" d="M20 3.33333C29.19 3.33333 36.6667 10.81 36.6667 20C36.6667 29.19 29.19 36.6667 20 36.6667C10.81 36.6667 3.33333 29.19 3.33333 20C3.33333 10.81 10.81 3.33333 20 3.33333ZM20 0C8.955 0 0 8.955 0 20C0 31.045 8.955 40 20 40C31.045 40 40 31.045 40 20C40 8.955 31.045 0 20 0ZM20.0017 23.3333C16.115 23.3333 13.0933 26.06 11.5133 27.995L12.2983 28.9617C14.4417 27.5967 16.8517 26.7817 20.0017 26.7817C23.1517 26.7817 25.5617 27.5967 27.705 28.9617L28.49 27.995C26.91 26.06 23.8883 23.3333 20.0017 23.3333ZM14.1667 13.3333C12.7867 13.3333 11.6667 14.4517 11.6667 15.8333C11.6667 17.215 12.7867 18.3333 14.1667 18.3333C15.5467 18.3333 16.6667 17.215 16.6667 15.8333C16.6667 14.4517 15.5467 13.3333 14.1667 13.3333ZM25.8333 13.3333C24.4533 13.3333 23.3333 14.4517 23.3333 15.8333C23.3333 17.215 24.4533 18.3333 25.8333 18.3333C27.2133 18.3333 28.3333 17.215 28.3333 15.8333C28.3333 14.4517 27.2133 13.3333 25.8333 13.3333Z" fill="#B8BABC"/>
</svg>
