<svg width="531" height="432" viewBox="0 0 531 432" fill="none" xmlns="http://www.w3.org/2000/svg">
<path d="M273.994 294.667H255.967V312.694H273.994V294.667Z" fill="#1980C2"/>
<path d="M275.799 71.9683C283.426 72.939 291.053 74.7417 298.263 77.6537L273.719 172.78H249.73L275.799 71.9683ZM246.54 73.2163L220.748 172.78H244.599L270.946 71.4136C262.765 70.9976 254.583 71.5523 246.54 73.2163ZM190.657 177.633L183.863 203.841C188.161 212.161 193.708 219.927 200.641 226.86L201.612 227.831L214.647 177.633H190.657V177.633ZM191.905 172.78H215.756L241.271 74.4643C231.703 76.9603 222.551 81.1204 214.092 86.8057L191.905 172.78ZM355.533 172.78C357.336 156.972 354.979 140.886 348.6 126.049L336.536 172.78H355.533ZM331.544 172.78L345.41 119.393C341.25 111.766 335.981 104.555 329.464 98.0378C328.77 97.3445 328.077 96.7898 327.384 96.0965L307.554 172.78H331.544ZM175.127 177.633C176.236 184.15 178.039 190.668 180.535 196.908L185.527 177.633H175.127ZM174.433 172.78H186.775L207.852 91.3818C205.356 93.4618 202.86 95.5418 200.503 97.8991C180.119 118.422 171.383 146.155 174.433 172.78ZM274.413 282.05L301.453 177.633H277.463L251.532 277.89L264.983 291.34L274.413 282.05ZM354.84 177.633H335.288L320.173 236.289L329.464 226.999C343.469 212.993 351.928 195.66 354.84 177.633ZM330.296 177.633H306.306L281.069 275.255L313.378 242.945L330.296 177.633ZM243.49 177.633H219.5L205.495 231.852L224.492 250.849L243.49 177.633Z" fill="white"/>
<path d="M228.514 254.873L247.511 273.87L272.471 177.635H248.482L228.514 254.873Z" fill="#FFEB00"/>
<path d="M302.841 79.457L278.713 172.78H302.702L323.503 92.3531C316.985 87.0837 310.052 82.7851 302.841 79.457Z" fill="#99FFFF"/>
<path d="M416.682 305.431C415.435 305.276 414.187 305.016 412.992 304.652L414.187 300.026L419.593 278.926L424.998 257.826L430.403 236.726L434.093 222.486C435.548 221.551 437.055 220.719 438.615 219.991L434.301 236.778L428.896 257.878L423.491 278.978L418.033 300.078L416.682 305.431ZM425.829 300.026L431.286 278.926L436.692 257.826L442.097 236.726L447.034 217.445C445.631 217.653 444.228 217.965 442.876 218.38L438.147 236.726L432.742 257.826L427.337 278.926L421.931 300.026L420.476 305.587H424.374L425.829 300.026ZM433.625 300.026L439.03 278.926L444.487 257.826L449.893 236.726L454.934 217.185C453.998 217.133 453.063 217.081 452.127 217.081C451.764 217.081 451.4 217.081 451.036 217.133L445.995 236.778L440.589 257.878L435.132 278.978L429.727 300.078L428.272 305.639H432.17L433.625 300.026ZM441.421 300.026L446.826 278.926L452.283 257.826L457.688 236.726L462.314 218.64C461.119 218.276 459.923 217.913 458.676 217.705L453.79 236.726L448.385 257.826L442.98 278.926L437.575 300.026L436.12 305.587H440.018L441.421 300.026ZM410.29 300.026L415.695 278.926L420.164 261.62C419.904 261.62 419.697 261.568 419.437 261.568C418.345 261.568 417.254 261.672 416.214 261.828L411.797 278.926L406.392 300.026L406.132 301.118C407.171 301.897 408.315 302.625 409.51 303.249L410.29 300.026ZM449.217 300.026L454.674 278.926L460.079 257.826L465.484 236.726L469.278 221.914C468.187 221.239 467.043 220.615 465.848 220.095L461.534 236.778L456.129 257.878L450.724 278.978L445.319 300.078L443.864 305.639H447.762L449.217 300.026ZM420.788 258.97L421.1 257.774L426.505 236.674L429.156 226.436C426.817 228.774 424.79 231.477 423.231 234.439L422.659 236.674L419.489 249.043C419.489 249.251 419.489 249.459 419.489 249.719C419.437 252.889 419.956 256.007 420.788 258.97ZM412.057 262.815C410.497 263.387 408.99 264.115 407.587 264.998L404.001 278.874L400.103 294.154C400.883 295.609 401.87 296.96 402.961 298.207L407.899 278.926L412.057 262.815ZM402.546 269.416C399.323 273.262 397.4 278.199 397.4 283.604C397.4 285.059 397.556 286.514 397.816 287.917L400.103 278.926L402.546 269.416ZM503.736 300.026L509.141 278.926L514.598 257.826L517.509 246.549C516.469 245.769 515.326 245.041 514.182 244.418L510.752 257.826L505.295 278.926L499.89 300.026L498.435 305.587C499.786 305.587 501.085 305.483 502.385 305.328L503.736 300.026ZM495.992 300.026L501.397 278.926L506.802 257.826L510.7 242.703C509.557 242.235 508.362 241.819 507.114 241.455L502.904 257.826L497.499 278.926L492.094 300.026L490.639 305.587H494.537L495.992 300.026ZM511.532 300.026L516.937 278.926L522.394 257.826L523.745 252.577C522.81 251.382 521.77 250.29 520.679 249.251L518.496 257.826L513.091 278.926L507.686 300.026L506.542 304.548C507.998 304.184 509.453 303.664 510.804 303.093L511.532 300.026ZM524.733 278.874L529.047 262.088C528.371 260.165 527.539 258.346 526.552 256.631L526.292 257.722L520.887 278.822L515.482 299.923L515.274 300.702C516.989 299.663 518.6 298.467 520.107 297.116L524.733 278.874ZM488.144 300.026L493.549 278.926L499.006 257.826L503.424 240.624C502.177 240.416 500.929 240.312 499.63 240.208L495.109 257.774L489.703 278.874L484.298 299.975L482.843 305.535H486.741L488.144 300.026ZM525.668 290.62C528.995 285.527 530.918 279.394 530.918 272.898C530.918 272.118 530.866 271.339 530.814 270.611L528.683 278.926L525.668 290.62ZM464.809 300.026L470.214 278.926L475.671 257.826L481.076 236.726L481.44 235.219C480.66 233.608 479.725 232.101 478.737 230.697L477.178 236.726L471.773 257.826L466.368 278.926L460.963 300.026L459.507 305.587H463.405L464.809 300.026ZM457.013 300.026L462.418 278.926L467.823 257.826L473.228 236.726L475.723 227.111C474.735 226.072 473.696 225.137 472.553 224.201L469.33 236.674L463.925 257.774L458.52 278.874L453.115 299.975L451.66 305.535H455.558L457.013 300.026ZM480.4 300.026L485.805 278.926L491.263 257.826L495.784 240.312C494.433 240.416 493.082 240.624 491.73 240.884L487.365 257.826L481.908 278.926L476.45 300.026L474.995 305.587H478.893L480.4 300.026ZM472.604 300.026L478.01 278.926L483.467 257.826L487.521 242.027C486.429 242.391 485.338 242.859 484.246 243.378C484.09 242.703 483.934 242.027 483.779 241.403L479.569 257.878L474.164 278.978L468.759 300.078L467.303 305.639H471.201L472.604 300.026Z" fill="white"/>
<path d="M100.782 431.793C99.5344 431.637 98.2871 431.377 97.0917 431.013L98.2871 426.388L103.692 405.288L109.097 384.187L114.502 363.087L118.193 348.847C119.648 347.912 121.155 347.08 122.714 346.353L118.4 363.139L112.995 384.239L107.59 405.34L102.133 426.44L100.782 431.793ZM109.929 426.388L115.386 405.288L120.791 384.187L126.196 363.087L131.134 343.806C129.73 344.014 128.327 344.326 126.976 344.742L122.246 363.087L116.841 384.187L111.436 405.288L106.031 426.388L104.576 431.949H108.474L109.929 426.388ZM117.725 426.388L123.13 405.288L128.587 384.187L133.992 363.087L139.033 343.546C138.098 343.494 137.162 343.442 136.227 343.442C135.863 343.442 135.499 343.442 135.136 343.494L130.094 363.139L124.689 384.239L119.232 405.34L113.827 426.44L112.372 432.001H116.27L117.725 426.388ZM125.521 426.388L130.926 405.288L136.383 384.187L141.788 363.087L146.414 345.002C145.218 344.638 144.023 344.274 142.775 344.066L137.89 363.087L132.485 384.187L127.08 405.288L121.675 426.388L120.219 431.949H124.117L125.521 426.388ZM94.3892 426.388L99.7943 405.288L104.264 387.981C104.004 387.981 103.796 387.929 103.536 387.929C102.445 387.929 101.353 388.033 100.314 388.189L95.8964 405.288L90.4912 426.388L90.2314 427.479C91.2708 428.259 92.4142 428.986 93.6096 429.61L94.3892 426.388ZM133.317 426.388L138.774 405.288L144.179 384.187L149.584 363.087L153.378 348.276C152.286 347.6 151.143 346.976 149.948 346.457L145.634 363.139L140.229 384.239L134.824 405.34L129.419 426.44L127.963 432.001H131.861L133.317 426.388ZM104.888 385.331L105.199 384.136L110.605 363.035L113.255 352.797C110.916 355.136 108.889 357.838 107.33 360.801L106.759 363.035L103.588 375.404C103.588 375.612 103.588 375.82 103.588 376.08C103.536 379.25 104.056 382.369 104.888 385.331ZM96.1562 389.177C94.597 389.748 93.0899 390.476 91.6866 391.359L88.1005 405.236L84.2026 420.515C84.9822 421.97 85.9696 423.322 87.061 424.569L91.9984 405.288L96.1562 389.177ZM86.6453 395.777C83.423 399.623 81.5 404.56 81.5 409.965C81.5 411.42 81.6559 412.875 81.9158 414.279L84.2026 405.288L86.6453 395.777ZM187.836 426.388L193.241 405.288L198.698 384.187L201.608 372.91C200.569 372.13 199.425 371.403 198.282 370.779L194.852 384.187L189.395 405.288L183.99 426.388L182.534 431.949C183.886 431.949 185.185 431.845 186.484 431.689L187.836 426.388ZM180.092 426.388L185.497 405.288L190.902 384.187L194.8 369.064C193.657 368.596 192.461 368.18 191.214 367.817L187.004 384.187L181.599 405.288L176.194 426.388L174.739 431.949H178.636L180.092 426.388ZM195.631 426.388L201.037 405.288L206.494 384.187L207.845 378.938C206.909 377.743 205.87 376.652 204.779 375.612L202.596 384.187L197.191 405.288L191.785 426.388L190.642 430.909C192.097 430.545 193.553 430.026 194.904 429.454L195.631 426.388ZM208.832 405.236L213.146 388.449C212.471 386.526 211.639 384.707 210.651 382.992L210.392 384.084L204.986 405.184L199.581 426.284L199.373 427.063C201.089 426.024 202.7 424.829 204.207 423.477L208.832 405.236ZM172.244 426.388L177.649 405.288L183.106 384.187L187.524 366.985C186.276 366.777 185.029 366.673 183.73 366.569L179.208 384.136L173.803 405.236L168.398 426.336L166.943 431.897H170.841L172.244 426.388ZM209.768 416.981C213.094 411.888 215.017 405.755 215.017 399.259C215.017 398.479 214.965 397.7 214.913 396.972L212.782 405.288L209.768 416.981ZM148.908 426.388L154.313 405.288L159.77 384.187L165.176 363.087L165.539 361.58C164.76 359.969 163.824 358.462 162.837 357.059L161.278 363.087L155.873 384.187L150.467 405.288L145.062 426.388L143.607 431.949H147.505L148.908 426.388ZM141.112 426.388L146.517 405.288L151.923 384.187L157.328 363.087L159.822 353.473C158.835 352.433 157.796 351.498 156.652 350.562L153.43 363.035L148.025 384.136L142.62 405.236L137.214 426.336L135.759 431.897H139.657L141.112 426.388ZM164.5 426.388L169.905 405.288L175.362 384.187L179.884 366.673C178.533 366.777 177.181 366.985 175.83 367.245L171.464 384.187L166.007 405.288L160.55 426.388L159.095 431.949H162.993L164.5 426.388ZM156.704 426.388L162.109 405.288L167.566 384.187L171.62 368.388C170.529 368.752 169.437 369.22 168.346 369.74C168.19 369.064 168.034 368.388 167.878 367.765L163.668 384.239L158.263 405.34L152.858 426.44L151.403 432.001H155.301L156.704 426.388Z" fill="white"/>
<path d="M23.8356 106.904L23.4718 108.307C22.3284 107.736 21.185 107.06 20.0936 106.384L25.3948 85.7519L30.7999 64.6517L36.2051 43.5516L39.8431 29.4675C40.6227 29.4155 41.4023 29.4155 42.1299 29.4155C42.6496 29.4155 43.2213 29.4155 43.7411 29.4675L40.103 43.6035L34.6459 64.7037L29.2408 85.8039L23.8356 106.904ZM31.6315 106.904L37.0886 85.8039L42.4937 64.7037L47.8988 43.6035L51.2771 30.5069C50.0817 30.247 48.8344 29.9872 47.535 29.8313L44.0009 43.6035L38.5958 64.7037L33.1907 85.8039L27.7855 106.904L27.0059 109.866C28.2013 110.334 29.3967 110.75 30.592 111.062L31.6315 106.904ZM39.4273 106.904L44.8325 85.8039L50.2376 64.7037L55.6947 43.6035L58.4493 32.8456C57.3059 32.3259 56.1105 31.9101 54.9151 31.4943L51.7968 43.6035L46.3397 64.7037L40.9345 85.8039L35.5294 106.904L34.2301 111.997C35.4774 112.257 36.7248 112.413 37.9721 112.569L39.4273 106.904ZM52.6283 85.8039L58.0335 64.7037L63.4906 43.6035L68.8957 22.5034L71.6502 11.7454C69.5194 13.8242 67.6484 16.059 66.0372 18.5536L65.0498 22.5034L59.5926 43.5516L54.1875 64.6517L48.7304 85.8039L43.3253 106.904L41.8181 112.725C41.922 112.725 42.026 112.725 42.1299 112.725H45.664L47.1712 106.904L52.6283 85.8039ZM55.0191 106.904L60.4242 85.8039L65.8813 64.7037L71.2864 43.6035L76.6916 22.5034L81.2651 4.78132C79.654 5.61286 78.0948 6.6003 76.6396 7.63972L72.7936 22.5034L67.3885 43.5516L61.9834 64.6517L56.5263 85.8039L51.1211 106.904L49.6139 112.725H53.5119L55.0191 106.904ZM62.763 106.904L68.2201 85.8039L73.6252 64.7037L79.0303 43.6035L84.4355 22.5034L89.8926 1.40322V1.35125C88.4373 1.76701 87.0341 2.23476 85.6308 2.75446L80.5895 22.5034L75.1844 43.5516L69.7792 64.6517L64.3221 85.8039L58.917 106.904L57.4098 112.725H61.3077L62.763 106.904ZM11.3103 64.6517L16.7154 43.5516L18.4305 36.7954C16.7154 37.9907 15.0523 39.3419 13.4931 40.7971L12.7655 43.6035L7.36036 64.7037L2.42298 83.8809C3.09862 85.9078 3.87821 87.8307 4.81371 89.7017L5.80119 85.8039L11.3103 64.6517ZM8.036 47.1895C3.30651 53.9457 0.5 62.2091 0.5 71.0961C0.5 72.6033 0.603945 74.1104 0.759862 75.5656L3.56637 64.7037L8.036 47.1895ZM13.701 85.8039L19.1061 64.7037L24.5632 43.6035L27.5257 32.118C26.0185 32.6897 24.5632 33.3653 23.108 34.0929L20.6653 43.6035L15.2082 64.7037L9.80306 85.8039L7.62022 94.3791C8.50375 95.7303 9.49123 96.9776 10.5307 98.1729L13.701 85.8039ZM70.5588 106.904L76.0159 85.8039L81.4211 64.7037L86.8782 43.6035L92.2833 22.5034L97.6884 1.40322L98.0522 0.051974C96.701 0.155916 95.3497 0.311825 94.0504 0.519708L93.7905 1.45519L88.3854 22.5553L82.9802 43.5516L77.5751 64.6517L72.118 85.8039L66.7129 106.904L65.2057 112.725H69.1036L70.5588 106.904ZM21.4969 85.8039L26.902 64.7037L32.3591 43.6035L35.8932 29.9352C34.49 30.1431 33.1387 30.403 31.7874 30.7667L28.5131 43.6035L23.108 64.7037L17.5989 85.8039L13.597 101.395C14.6365 102.331 15.6759 103.266 16.7674 104.098L21.4969 85.8039ZM132.874 106.904L138.331 85.8039L143.736 64.7037L145.763 56.9081C144.672 56.8041 143.58 56.7002 142.489 56.7002C142.281 56.7002 142.125 56.7002 141.917 56.7002L139.838 64.7037L134.433 85.8039L129.028 106.904L127.521 112.725H131.419L132.874 106.904ZM140.67 106.904L146.075 85.8039L151.48 64.7037L152.987 58.779C151.844 58.3113 150.648 57.8955 149.401 57.5837L147.582 64.7037L142.229 85.8039L136.824 106.904L135.316 112.725H139.214L140.67 106.904ZM148.466 106.904L153.871 85.8039L159.328 64.7037L159.847 62.7288C158.808 61.8973 157.665 61.1697 156.521 60.4941L155.43 64.7557L150.025 85.8039L144.62 106.904L143.112 112.725C144.464 112.673 145.815 112.569 147.114 112.361L148.466 106.904ZM165.72 100.356L169.462 85.7519L170.398 82.1659C170.138 79.4115 169.514 76.761 168.527 74.3183L165.564 85.8039L160.315 106.332C162.394 104.617 164.213 102.59 165.72 100.356ZM156.261 106.904L161.718 85.8039L165.928 69.3291C165.045 67.9779 164.057 66.7306 163.018 65.5872L157.821 85.8039L152.415 106.904L151.272 111.322C152.779 110.802 154.234 110.178 155.638 109.451L156.261 106.904ZM125.13 106.904L130.535 85.8039L135.94 64.7037L141.397 43.6035L142.385 39.8097C142.229 36.5875 141.761 33.4173 140.878 30.4029L137.499 43.6035L132.094 64.7037L126.637 85.8039L121.232 106.904L119.725 112.725H123.623L125.13 106.904ZM78.3547 106.904L83.7598 85.8039L89.165 64.7037L94.6221 43.6035L100.027 22.5034L105.432 1.40322L105.744 0.259854C104.497 0.103942 103.198 0 101.95 0L101.586 1.45519L96.1812 22.5553L90.7761 43.5516L85.371 64.6517L79.9139 85.8039L74.5087 106.904L73.0015 112.725H76.8995L78.3547 106.904ZM117.334 106.904L122.739 85.8039L128.144 64.7037L133.601 43.6035L138.591 24.1664C137.811 22.5034 136.928 20.8403 135.94 19.3332L135.109 22.5034L129.703 43.6035L124.298 64.7037L118.841 85.8039L113.436 106.904L111.929 112.725H115.827L117.334 106.904ZM93.9464 106.904L99.3516 85.8039L104.809 64.7037L110.266 43.6035L115.671 22.5034L120.244 4.78132C119.101 4.15767 117.958 3.63796 116.762 3.11825L111.773 22.5034L106.368 43.6035L100.963 64.7037L95.5056 85.8039L90.1005 106.904L88.5933 112.725H92.4912L93.9464 106.904ZM86.1506 106.904L91.5557 85.8039L96.9608 64.7037L102.418 43.6035L107.823 22.5034L113.124 1.81898C111.929 1.45518 110.734 1.14336 109.486 0.883511L109.33 1.40322L103.873 22.5034L98.572 43.5516L93.1149 64.6517L87.7097 85.8039L82.3046 106.904L80.7974 112.725H84.6953L86.1506 106.904ZM101.742 106.904L107.147 85.8039L112.553 64.7037L117.958 43.6035L123.415 22.5034L126.845 9.14687C125.806 8.31534 124.714 7.4838 123.571 6.75621L119.517 22.5034L114.06 43.6035L108.655 64.7037L103.249 85.8039L97.8444 106.904L96.3372 112.725H100.235L101.742 106.904ZM109.538 106.904L114.943 85.8039L120.4 64.7037L125.857 43.6035L131.263 22.5034L133.134 15.3314C132.198 14.188 131.159 13.0447 130.119 12.0053L127.417 22.5034L122.012 43.6035L116.554 64.7037L111.045 85.8039L105.64 106.904L104.133 112.725H108.031L109.538 106.904Z" fill="white"/>
</svg>
