<svg width="195" height="259" viewBox="0 0 195 259" fill="none" xmlns="http://www.w3.org/2000/svg">
<path d="M107.043 238.754H87.7766V258.021H107.043V238.754Z" fill="#1980C2"/>
<path d="M108.972 0.734312C117.123 1.77176 125.275 3.69844 132.981 6.81077L106.749 108.48H81.1092L108.972 0.734312ZM77.7005 2.06817L50.1341 108.48H75.6256L103.785 0.141487C95.0406 -0.303131 86.2965 0.289694 77.7005 2.06817ZM17.9734 113.667L10.7113 141.678C15.3057 150.571 21.2339 158.87 28.6442 166.281L29.6817 167.318L43.6131 113.667H17.9734ZM19.3072 108.48H44.7987L72.0687 3.40202C61.8424 6.06974 52.0608 10.5159 43.0202 16.5924L19.3072 108.48ZM194.191 108.48C196.117 91.5847 193.598 74.3928 186.78 58.5348L173.886 108.48H194.191ZM168.551 108.48L183.372 51.4209C178.925 43.2695 173.294 35.5628 166.328 28.5971C165.587 27.8561 164.846 27.2632 164.105 26.5222L142.911 108.48H168.551ZM1.37428 113.667C2.55993 120.633 4.48661 127.599 7.15432 134.268L12.4897 113.667H1.37428ZM0.633249 108.48H13.8236L36.351 21.4832C33.6832 23.7063 31.0155 25.9294 28.496 28.4489C6.70971 50.3834 -2.62729 80.0247 0.633249 108.48ZM107.49 225.267L136.39 113.667H110.75L83.0359 220.821L97.4119 235.197L107.49 225.267ZM193.45 113.667H172.553L156.398 176.359L166.328 166.429C181.297 151.46 190.337 132.934 193.45 113.667ZM167.217 113.667H141.577L114.604 218.005L149.136 183.473L167.217 113.667ZM74.44 113.667H48.8003L33.8314 171.616L54.1357 191.92L74.44 113.667Z" fill="white"/>
<path d="M58.4331 196.221L78.7374 216.525L105.414 113.67H79.7748L58.4331 196.221Z" fill="#FFEB00"/>
<path d="M137.876 8.73633L112.088 108.479H137.728L159.959 22.5195C152.993 16.8877 145.583 12.2933 137.876 8.73633Z" fill="#99FFFF"/>
</svg>
