<svg width="2175" height="1402" fill="none" xmlns="http://www.w3.org/2000/svg">
	<path stroke="#61CAFA" stroke-width="6" d="M1186.59 181.19l13.52 8.548M1092.13 332.481l13.74-8.202M1406.46 220.255l10.35-12.197M1209.52 69.229l15.95-1.22M1521.41 344.869l-2.87 15.741"/>
	<path stroke="#61C59F" stroke-width="6" d="M1500.35 225.464l13.52 8.549M1402.25 171.046l3.44 15.626M1437.49 387.303l-15.98-.641M1243.01 240.224l-10.79-11.813M1187.35 257.824l13.52 8.549"/>
	<path stroke="#399AF7" stroke-width="6" d="M1152.69 456.875l13.69-8.289"/>
	<path stroke="#FDEA4F" stroke-width="6" d="M1164.75 302.866l11.24-11.396"/>
	<path stroke="#11AFDE" stroke-width="6" d="M1143.99 392.45l1.42-15.937"/>
	<path stroke="#FDEA4F" stroke-width="6" d="M1475.61 303.14l11.23-11.395M1329.64 208.106l16-.034"/>
	<path stroke="#AEFCFE" stroke-width="6" d="M1420.08 307.664l-4.03 15.484M1417.22 432.416l-8.25-13.71"/>
	<path stroke="#00BCD5" stroke-width="6" d="M1437.92 258.386l3-8.395M1392.48 85.056l8.07-3.774M1475.1 327.578l1.6 8.771M1311.91 224.935l-5.11 7.307M1124.92 290.746l3-8.396"/>
	<path stroke="#4FA645" stroke-width="6" d="M1207.92 380.386l3-8.395"/>
	<path stroke="#FEC343" stroke-width="6" d="M1226.6 424.813l-3.02-8.387"/>
	<path stroke="#4FA645" stroke-width="6" d="M1518.77 380.66l3-8.395"/>
	<path stroke="#FEC343" stroke-width="6" d="M1455.77 155.747l7.23-6.36M1363.95 90.007l9.61.667M1510.96 425.388l-3.08 9.125M1267.63 319.232l-8.66 4.227M1142.77 188.107l7.23-6.36M1078.5 374.7l-2.4-9.326"/>
	<path stroke="#61CAFA" stroke-width="6" d="M908.488 500.34l-16.782 10.608M1024.938 688.081l-17.046-10.178M634.72 548.672l-12.85-15.134M879.592 361.523l-19.796-1.514M493.345 702.704l3.56 19.532"/>
	<path stroke="#61C59F" stroke-width="6" d="M519.154 555.278l-16.782 10.608M641.207 487.297l-4.267 19.39M596.733 754.766l19.838-.796M837.559 572.496l13.39-14.659M907.542 595.433l-16.782 10.608"/>
	<path stroke="#399AF7" stroke-width="6" d="M949.788 842.434l-16.982-10.285"/>
	<path stroke="#FDEA4F" stroke-width="6" d="M934.676 651.22l-13.937-14.14"/>
	<path stroke="#11AFDE" stroke-width="6" d="M960.238 761.938l-1.76-19.776"/>
	<path stroke="#FDEA4F" stroke-width="6" d="M548.953 651.56l-13.937-14.14M730.596 533.853l-19.854-.042"/>
	<path stroke="#AEFCFE" stroke-width="6" d="M619.069 656.484l5 19.215M621.3 811.095l10.235-17.013"/>
	<path stroke="#00BCD5" stroke-width="6" d="M595.552 595.761l-3.723-10.417M652.317 381.096l-10.023-4.683M550.81 681.507l-1.984 10.883M753.186 553.597l6.339 9.067M983.942 635.917l-3.723-10.418"/>
	<path stroke="#4FA645" stroke-width="6" d="M880.949 747.146l-3.723-10.417"/>
	<path stroke="#FEC343" stroke-width="6" d="M857.763 801.787l3.754-10.407"/>
	<path stroke="#4FA645" stroke-width="6" d="M495.224 747.487l-3.723-10.417"/>
	<path stroke="#FEC343" stroke-width="6" d="M573.613 468.702l-8.975-7.892M688.065 387.306l-11.922.827M506.28 802.514l3.826 11.321M807.862 670.372l10.739 5.245M962.001 508.856l-8.975-7.892M1041.525 739.667l2.985-11.572"/>
	<path stroke="#61CAFA" stroke-width="6" d="M908.488 946.34l-16.782 10.608M1024.938 1134.084l-17.046-10.178M634.72 994.672l-12.85-15.134M879.592 807.523l-19.796-1.514M493.345 1148.708l3.56 19.532"/>
	<path stroke="#61C59F" stroke-width="6" d="M519.154 1001.274l-16.782 10.608M641.207 933.297l-4.267 19.39M596.733 1200.768l19.838-.796M837.559 1018.493l13.39-14.659M907.542 1041.434l-16.782 10.608"/>
	<path stroke="#399AF7" stroke-width="6" d="M949.788 1288.434l-16.982-10.285"/>
	<path stroke="#FDEA4F" stroke-width="6" d="M934.676 1097.224l-13.937-14.14"/>
	<path stroke="#11AFDE" stroke-width="6" d="M960.238 1207.934l-1.76-19.776"/>
	<path stroke="#FDEA4F" stroke-width="6" d="M548.953 1097.564l-13.937-14.14M730.596 979.853l-19.854-.042"/>
	<path stroke="#AEFCFE" stroke-width="6" d="M619.069 1102.485l5 19.215M621.3 1257.097l10.235-17.013"/>
	<path stroke="#00BCD5" stroke-width="6" d="M595.552 1041.76l-3.723-10.417M652.317 827.096l-10.023-4.683M550.81 1127.502l-1.984 10.883M753.186 999.597l6.339 9.067M983.942 1081.92l-3.723-10.417"/>
	<path stroke="#4FA645" stroke-width="6" d="M880.949 1193.15l-3.723-10.417"/>
	<path stroke="#FEC343" stroke-width="6" d="M857.763 1247.788l3.754-10.407"/>
	<path stroke="#4FA645" stroke-width="6" d="M495.224 1193.49l-3.723-10.417"/>
	<path stroke="#FEC343" stroke-width="6" d="M573.613 914.702l-8.975-7.892M688.065 833.306l-11.922.827M506.28 1248.51l3.826 11.322M807.862 1116.376l10.739 5.245M962.001 954.856l-8.975-7.892M1041.525 1185.67l2.985-11.573"/>
	<path stroke="#61CAFA" stroke-width="6" d="M934.015 861.19l-13.525 8.549M1028.468 1012.484l-13.737-8.202M714.142 900.255l-10.356-12.196M911.084 749.229l-15.954-1.22M599.194 1024.868l2.87 15.74"/>
	<path stroke="#61C59F" stroke-width="6" d="M620.252 905.464l-13.525 8.549M718.354 851.045l-3.439 15.626M683.108 1067.308l15.987-.641M877.593 920.224l10.791-11.813M933.252 937.824l-13.525 8.549"/>
	<path stroke="#399AF7" stroke-width="6" d="M967.91 1136.874l-13.686-8.289"/>
	<path stroke="#FDEA4F" stroke-width="6" d="M955.848 982.866l-11.232-11.395"/>
	<path stroke="#11AFDE" stroke-width="6" d="M976.613 1072.454l-1.418-15.937"/>
	<path stroke="#FDEA4F" stroke-width="6" d="M644.992 983.14l-11.232-11.395M790.964 888.106l-16-.034"/>
	<path stroke="#AEFCFE" stroke-width="6" d="M700.519 987.663l4.029 15.485M703.383 1112.417l8.248-13.71"/>
	<path stroke="#00BCD5" stroke-width="6" d="M682.68 938.386l-3-8.395M728.125 765.056l-8.077-3.774M645.502 1007.582l-1.6 8.77M808.693 904.935l5.108 7.306M995.68 970.745l-3-8.395"/>
	<path stroke="#4FA645" stroke-width="6" d="M912.68 1060.39l-3-8.395"/>
	<path stroke="#FEC343" stroke-width="6" d="M893.998 1104.808l3.025-8.386"/>
	<path stroke="#4FA645" stroke-width="6" d="M601.829 1060.66l-3-8.395"/>
	<path stroke="#FEC343" stroke-width="6" d="M664.836 835.747l-7.232-6.36M756.647 770.007l-9.607.666M609.638 1105.39l3.084 9.125M852.976 999.233l8.654 4.227M977.836 868.107l-7.232-6.36M1042.105 1054.7l2.405-9.326"/>
	<path stroke="#61CAFA" stroke-width="6" d="M1558.59 276.19l13.52 8.548M1464.13 427.481l13.74-8.202M1778.46 315.255l10.35-12.197M1581.52 164.229l15.95-1.22M1893.41 439.869l-2.87 15.741"/>
	<path stroke="#61C59F" stroke-width="6" d="M1872.35 320.464l13.52 8.549M1774.25 266.046l3.44 15.626M1809.49 482.303l-15.98-.641M1615.01 335.224l-10.79-11.813M1559.35 352.824l13.52 8.549"/>
	<path stroke="#399AF7" stroke-width="6" d="M1524.69 551.875l13.69-8.289"/>
	<path stroke="#FDEA4F" stroke-width="6" d="M1536.75 397.866l11.24-11.396"/>
	<path stroke="#11AFDE" stroke-width="6" d="M1515.99 487.45l1.42-15.937"/>
	<path stroke="#FDEA4F" stroke-width="6" d="M1847.61 398.14l11.23-11.395M1701.64 303.106l16-.034"/>
	<path stroke="#AEFCFE" stroke-width="6" d="M1792.08 402.664l-4.03 15.484M1789.22 527.416l-8.25-13.71"/>
	<path stroke="#00BCD5" stroke-width="6" d="M1809.92 353.386l3-8.395M1764.48 180.056l8.07-3.774M1847.1 422.578l1.6 8.771M1683.91 319.935l-5.11 7.307M1496.92 385.746l3-8.396"/>
	<path stroke="#4FA645" stroke-width="6" d="M1579.92 475.386l3-8.395"/>
	<path stroke="#FEC343" stroke-width="6" d="M1598.6 519.813l-3.02-8.387"/>
	<path stroke="#4FA645" stroke-width="6" d="M1890.77 475.66l3-8.395"/>
	<path stroke="#FEC343" stroke-width="6" d="M1827.77 250.747l7.23-6.36M1735.95 185.007l9.61.666M1882.96 520.388l-3.08 9.125M1639.63 414.232l-8.66 4.227M1514.77 283.107l7.23-6.36M1450.5 469.7l-2.4-9.326"/>
	<path stroke="#61CAFA" stroke-width="6" d="M703.587 216.19l13.525 8.548M609.131 367.481l13.737-8.202M923.459 255.255l10.356-12.197M726.517 104.229l15.954-1.22M1038.41 379.869l-2.87 15.741"/>
	<path stroke="#61C59F" stroke-width="6" d="M1017.35 260.464l13.52 8.549M919.247 206.046l3.439 15.626M954.493 422.303l-15.987-.641M760.009 275.224l-10.791-11.813M704.349 292.824l13.525 8.549"/>
	<path stroke="#399AF7" stroke-width="6" d="M669.692 491.875l13.685-8.289"/>
	<path stroke="#FDEA4F" stroke-width="6" d="M681.754 337.866l11.231-11.396"/>
	<path stroke="#11AFDE" stroke-width="6" d="M660.988 427.45l1.419-15.937"/>
	<path stroke="#FDEA4F" stroke-width="6" d="M992.609 338.14l11.231-11.395M846.638 243.106l16-.034"/>
	<path stroke="#AEFCFE" stroke-width="6" d="M937.083 342.664l-4.029 15.484M934.219 467.416l-8.248-13.71"/>
	<path stroke="#00BCD5" stroke-width="6" d="M954.921 293.386l3-8.395M909.476 120.056l8.077-3.774M992.1 362.578l1.599 8.771M828.908 259.935l-5.108 7.307M641.921 325.746l3-8.396"/>
	<path stroke="#4FA645" stroke-width="6" d="M724.921 415.386l3-8.395"/>
	<path stroke="#FEC343" stroke-width="6" d="M743.604 459.813l-3.025-8.387"/>
	<path stroke="#4FA645" stroke-width="6" d="M1035.77 415.66l3-8.395"/>
	<path stroke="#FEC343" stroke-width="6" d="M972.765 190.747l7.233-6.36M880.954 125.007l9.608.666M1027.96 460.388l-3.08 9.125M784.625 354.232l-8.654 4.227M659.765 223.107l7.233-6.36M595.501 409.7l-2.406-9.326"/>
	<path stroke="#61CAFA" stroke-width="6" d="M1564.417 557.115l-19.394 12.259M1698.498 774.088l-19.7-11.762M1247.427 612.877l-14.85-17.49M1530.739 396.759l-22.877-1.75M1084.849 790.502l4.115 22.572"/>
	<path stroke="#61C59F" stroke-width="6" d="M1114.467 620.606l-19.394 12.259M1255.73 541.748l-4.93 22.408M1203.86 850.286l22.926-.92M1481.845 639.793l15.474-16.94M1563.327 667.011l-19.394 12.259"/>
	<path stroke="#399AF7" stroke-width="6" d="M1611.654 952.467l-19.625-11.886"/>
	<path stroke="#FDEA4F" stroke-width="6" d="M1594.097 731.415l-16.106-16.34"/>
	<path stroke="#11AFDE" stroke-width="6" d="M1623.508 859.082l-2.034-22.854"/>
	<path stroke="#FDEA4F" stroke-width="6" d="M1148.327 731.808l-16.106-16.34M1358.576 595.916l-22.944-.049"/>
	<path stroke="#AEFCFE" stroke-width="6" d="M1230.147 737.053l5.777 22.205M1231.87 915.609l11.828-19.661"/>
	<path stroke="#00BCD5" stroke-width="6" d="M1202.075 667.154l-4.302-12.04M1267.92 419.336l-11.583-5.412M1151.269 766.173l-2.294 12.577M1385.071 617.999l7.326 10.478M1650.925 713.558l-4.302-12.039"/>
	<path stroke="#4FA645" stroke-width="6" d="M1531.895 842.105l-4.302-12.04"/>
	<path stroke="#FEC343" stroke-width="6" d="M1505.112 904.934l4.338-12.027"/>
	<path stroke="#4FA645" stroke-width="6" d="M1086.125 842.499l-4.302-12.04"/>
	<path stroke="#FEC343" stroke-width="6" d="M1176.851 520.507l-10.372-9.12M1309.462 426.555l-13.778.956M1099.788 905.784l4.422 13.084M1448.073 752.8l12.411 6.063M1625.701 566.912l-10.372-9.12M1717.455 833.187l3.45-13.374"/>
	<path stroke="#61CAFA" stroke-width="6" d="M1564.417 1003.114l-19.394 12.259M1698.498 1220.084l-19.7-11.762M1247.427 1058.878l-14.85-17.49M1530.739 842.759l-22.877-1.75M1084.849 1236.498l4.115 22.572"/>
	<path stroke="#61C59F" stroke-width="6" d="M1114.467 1066.604l-19.394 12.259M1255.73 987.748l-4.93 22.408M1203.86 1296.288l22.926-.92M1481.845 1085.793l15.474-16.94M1563.327 1113.014l-19.394 12.259"/>
	<path stroke="#399AF7" stroke-width="6" d="M1611.654 1398.464l-19.625-11.886"/>
	<path stroke="#FDEA4F" stroke-width="6" d="M1594.097 1177.414l-16.106-16.34"/>
	<path stroke="#11AFDE" stroke-width="6" d="M1623.508 1305.084l-2.034-22.854"/>
	<path stroke="#FDEA4F" stroke-width="6" d="M1148.327 1177.804l-16.106-16.34M1358.576 1041.92l-22.944-.049"/>
	<path stroke="#AEFCFE" stroke-width="6" d="M1230.147 1183.055l5.777 22.205M1231.87 1361.607l11.828-19.661"/>
	<path stroke="#00BCD5" stroke-width="6" d="M1202.075 1113.15l-4.302-12.039M1267.92 865.336l-11.583-5.412M1151.269 1212.172l-2.294 12.577M1385.071 1063.999l7.326 10.478M1650.925 1159.56l-4.302-12.039"/>
	<path stroke="#4FA645" stroke-width="6" d="M1531.895 1288.1l-4.302-12.039"/>
	<path stroke="#FEC343" stroke-width="6" d="M1505.112 1350.938l4.338-12.027"/>
	<path stroke="#4FA645" stroke-width="6" d="M1086.125 1288.5l-4.302-12.039"/>
	<path stroke="#FEC343" stroke-width="6" d="M1176.851 966.507l-10.372-9.12M1309.462 872.555l-13.778.956M1099.788 1351.78l4.422 13.085M1448.073 1198.806l12.411 6.062M1625.701 1012.917l-10.372-9.12M1717.455 1279.19l3.45-13.375"/>
	<path stroke="#61CAFA" stroke-width="6" d="M1417.017 896.19l-13.525 8.549M1511.468 1047.484l-13.737-8.202M1197.147 935.255l-10.356-12.196M1394.089 784.229l-15.954-1.22M1082.189 1059.868l2.87 15.74"/>
	<path stroke="#61C59F" stroke-width="6" d="M1103.257 940.464l-13.525 8.549M1201.35 886.045l-3.439 15.626M1166.11 1102.308l15.987-.641M1360.595 955.224l10.791-11.813M1416.257 972.824l-13.525 8.549"/>
	<path stroke="#399AF7" stroke-width="6" d="M1450.914 1171.874l-13.686-8.289"/>
	<path stroke="#FDEA4F" stroke-width="6" d="M1438.847 1017.864l-11.232-11.395"/>
	<path stroke="#11AFDE" stroke-width="6" d="M1459.608 1107.454l-1.418-15.937"/>
	<path stroke="#FDEA4F" stroke-width="6" d="M1127.997 1018.144l-11.232-11.395M1273.966 923.106l-16-.034"/>
	<path stroke="#AEFCFE" stroke-width="6" d="M1183.517 1022.665l4.029 15.485M1186.38 1147.417l8.249-13.71"/>
	<path stroke="#00BCD5" stroke-width="6" d="M1165.685 973.386l-3-8.395M1211.13 800.056l-8.077-3.774M1128.499 1042.582l-1.6 8.77M1291.691 939.935l5.108 7.306M1478.685 1005.75l-3-8.395"/>
	<path stroke="#4FA645" stroke-width="6" d="M1395.685 1095.39l-3-8.395"/>
	<path stroke="#FEC343" stroke-width="6" d="M1377.002 1139.808l3.025-8.386"/>
	<path stroke="#4FA645" stroke-width="6" d="M1084.825 1095.66l-3-8.395"/>
	<path stroke="#FEC343" stroke-width="6" d="M1147.841 870.747l-7.232-6.36M1239.652 805.007l-9.607.666M1092.638 1140.39l3.084 9.125M1335.973 1034.236l8.654 4.227M1460.841 903.107l-7.232-6.36M1525.105 1089.7l2.405-9.326"/>
	<path stroke="#61CAFA" stroke-width="6" d="M353.587 116.19l13.525 8.548M259.131 267.481l13.737-8.202M573.459 155.255l10.356-12.197M376.517 4.229l15.954-1.22M688.408 279.869l-2.869 15.741"/>
	<path stroke="#61C59F" stroke-width="6" d="M667.349 160.464l13.525 8.549M569.247 106.046l3.439 15.626M604.493 322.303l-15.987-.641M410.009 175.224l-10.791-11.813M354.349 192.824l13.525 8.549"/>
	<path stroke="#399AF7" stroke-width="6" d="M319.692 391.875l13.685-8.289"/>
	<path stroke="#FDEA4F" stroke-width="6" d="M331.754 237.866l11.231-11.396"/>
	<path stroke="#11AFDE" stroke-width="6" d="M310.988 327.45l1.419-15.937"/>
	<path stroke="#FDEA4F" stroke-width="6" d="M642.609 238.14l11.232-11.395M496.638 143.106l16-.034"/>
	<path stroke="#AEFCFE" stroke-width="6" d="M587.083 242.664l-4.029 15.484M584.219 367.416l-8.248-13.71"/>
	<path stroke="#00BCD5" stroke-width="6" d="M604.921 193.386l3-8.395M559.476 20.056l8.077-3.774M642.1 262.578l1.599 8.771M478.908 159.935l-5.108 7.307M291.921 225.746l3-8.396"/>
	<path stroke="#4FA645" stroke-width="6" d="M374.921 315.386l3-8.395"/>
	<path stroke="#FEC343" stroke-width="6" d="M393.604 359.813l-3.025-8.387"/>
	<path stroke="#4FA645" stroke-width="6" d="M685.773 315.66l3-8.395"/>
	<path stroke="#FEC343" stroke-width="6" d="M622.765 90.747l7.233-6.36M530.954 25.007l9.608.667M677.963 360.388l-3.084 9.125M434.625 254.232l-8.654 4.227M309.765 123.107l7.233-6.36M245.501 309.7l-2.406-9.326"/>
	<path stroke="#61CAFA" stroke-width="6" d="M113.587 516.19l13.525 8.548M19.131 667.481l13.737-8.202M333.459 555.255l10.356-12.197M136.517 404.229l15.954-1.22M448.408 679.869l-2.87 15.741"/>
	<path stroke="#61C59F" stroke-width="6" d="M427.349 560.464l13.525 8.549M329.247 506.046l3.439 15.626M364.493 722.303l-15.987-.641M170.009 575.224l-10.791-11.813M114.349 592.824l13.525 8.549"/>
	<path stroke="#399AF7" stroke-width="6" d="M79.692 791.875l13.685-8.289"/>
	<path stroke="#FDEA4F" stroke-width="6" d="M91.754 637.866l11.231-11.396"/>
	<path stroke="#11AFDE" stroke-width="6" d="M70.988 727.45l1.419-15.937"/>
	<path stroke="#FDEA4F" stroke-width="6" d="M402.609 638.14l11.232-11.395M256.638 543.106l16-.034"/>
	<path stroke="#AEFCFE" stroke-width="6" d="M347.083 642.664l-4.029 15.484M344.219 767.416l-8.248-13.71"/>
	<path stroke="#00BCD5" stroke-width="6" d="M364.921 593.386l3-8.395M319.476 420.056l8.077-3.774M402.1 662.578l1.599 8.771M238.908 559.935l-5.108 7.307M51.921 625.746l3-8.396"/>
	<path stroke="#4FA645" stroke-width="6" d="M134.921 715.386l3-8.395"/>
	<path stroke="#FEC343" stroke-width="6" d="M153.604 759.813l-3.025-8.387"/>
	<path stroke="#4FA645" stroke-width="6" d="M445.773 715.66l3-8.395"/>
	<path stroke="#FEC343" stroke-width="6" d="M382.765 490.747l7.233-6.36M290.954 425.007l9.608.666M437.963 760.388l-3.084 9.125M194.625 654.232l-8.654 4.227M69.765 523.107l7.233-6.36M5.501 709.7l-2.406-9.326"/>
	<path stroke="#61CAFA" stroke-width="6" d="M143.888 965.361l17.392 10.992M23.321 1159.92l17.665-10.55M427.737 1015.42l13.316-15.679M173.896 821.519l20.515-1.569M574.053 1174.96l-3.691 20.24"/>
	<path stroke="#61C59F" stroke-width="6" d="M547.357 1022.29l17.391 11M420.828 951.775l4.422 20.094M467.024 1228.82l-20.558-.82M217.531 1039.97l-13.876-15.19M144.868 1063.91l17.391 10.99"/>
	<path stroke="#399AF7" stroke-width="6" d="M101.205 1319.87l17.598-10.65"/>
	<path stroke="#FDEA4F" stroke-width="6" d="M116.883 1121.7l14.442-14.65"/>
	<path stroke="#11AFDE" stroke-width="6" d="M90.425 1236.37l1.824-20.49"/>
	<path stroke="#FDEA4F" stroke-width="6" d="M516.613 1122.05l14.443-14.65M328.299 1000.11l20.574-.05"/>
	<path stroke="#AEFCFE" stroke-width="6" d="M443.767 1127.05l-5.181 19.91M441.652 1287.25l-10.606-17.63"/>
	<path stroke="#00BCD5" stroke-width="6" d="M468.346 1064.19l3.858-10.79M409.464 841.793l10.387-4.853M514.502 1153.03l2.057 11.28M304.799 1020.4l-6.569 9.39M65.859 1105.8l3.857-10.79"/>
	<path stroke="#4FA645" stroke-width="6" d="M172.589 1221.07l3.858-10.79"/>
	<path stroke="#FEC343" stroke-width="6" d="M196.612 1277.62l-3.89-10.78"/>
	<path stroke="#4FA645" stroke-width="6" d="M572.316 1221.42l3.857-10.79"/>
	<path stroke="#FEC343" stroke-width="6" d="M491.051 932.563l9.3-8.179M372.364 848.239l12.356.856M560.654 1278.38l-3.965 11.73M248.176 1141.37l-11.128 5.44M88.561 974.175l9.301-8.179M6.188 1213.26l-3.093-12"/>
	<path stroke="#61CAFA" stroke-width="6" d="M1836.59 635.19l13.52 8.548M1742.13 786.481l13.74-8.202M2056.46 674.255l10.35-12.197M1859.52 523.229l15.95-1.22M2171.41 798.869l-2.87 15.741"/>
	<path stroke="#61C59F" stroke-width="6" d="M2150.35 679.464l13.52 8.549M2052.25 625.046l3.44 15.626M2087.49 841.303l-15.98-.641M1893.01 694.224l-10.79-11.813M1837.35 711.824l13.52 8.549"/>
	<path stroke="#399AF7" stroke-width="6" d="M1802.69 910.875l13.69-8.289"/>
	<path stroke="#FDEA4F" stroke-width="6" d="M1814.75 756.866l11.24-11.396"/>
	<path stroke="#11AFDE" stroke-width="6" d="M1793.99 846.45l1.42-15.937"/>
	<path stroke="#FDEA4F" stroke-width="6" d="M2125.61 757.14l11.23-11.395M1979.64 662.106l16-.034"/>
	<path stroke="#AEFCFE" stroke-width="6" d="M2070.08 761.664l-4.03 15.484M2067.22 886.416l-8.25-13.71"/>
	<path stroke="#00BCD5" stroke-width="6" d="M2087.92 712.386l3-8.395M2042.48 539.056l8.07-3.774M2125.1 781.578l1.6 8.771M1961.91 678.935l-5.11 7.307M1774.92 744.746l3-8.396"/>
	<path stroke="#4FA645" stroke-width="6" d="M1857.92 834.386l3-8.395"/>
	<path stroke="#FEC343" stroke-width="6" d="M1876.6 878.813l-3.02-8.387"/>
	<path stroke="#4FA645" stroke-width="6" d="M2168.77 834.66l3-8.395"/>
	<path stroke="#FEC343" stroke-width="6" d="M2105.77 609.747l7.23-6.36M2013.95 544.007l9.61.666M2160.96 879.388l-3.08 9.125M1917.63 773.232l-8.66 4.227M1792.77 642.107l7.23-6.36M1728.5 828.7l-2.4-9.326"/>
	<path stroke="#61CAFA" stroke-width="6" d="M1836.59 1023.19l13.52 8.55M1742.13 1174.48l13.74-8.2M2056.46 1062.26l10.35-12.2M1859.52 911.229l15.95-1.22M2171.41 1186.87l-2.87 15.74"/>
	<path stroke="#61C59F" stroke-width="6" d="M2150.35 1067.46l13.52 8.55M2052.25 1013.05l3.44 15.62M2087.49 1229.3l-15.98-.64M1893.01 1082.22l-10.79-11.81M1837.35 1099.82l13.52 8.55"/>
	<path stroke="#399AF7" stroke-width="6" d="M1802.69 1298.87l13.69-8.28"/>
	<path stroke="#FDEA4F" stroke-width="6" d="M1814.75 1144.87l11.24-11.4"/>
	<path stroke="#11AFDE" stroke-width="6" d="M1793.99 1234.45l1.42-15.94"/>
	<path stroke="#FDEA4F" stroke-width="6" d="M2125.61 1145.14l11.23-11.4M1979.64 1050.11l16-.04"/>
	<path stroke="#AEFCFE" stroke-width="6" d="M2070.08 1149.66l-4.03 15.49M2067.22 1274.42l-8.25-13.71"/>
	<path stroke="#00BCD5" stroke-width="6" d="M2087.92 1100.39l3-8.4M2042.48 927.056l8.07-3.774M2125.1 1169.58l1.6 8.77M1961.91 1066.93l-5.11 7.31M1774.92 1132.75l3-8.4"/>
	<path stroke="#4FA645" stroke-width="6" d="M1857.92 1222.39l3-8.4"/>
	<path stroke="#FEC343" stroke-width="6" d="M1876.6 1266.81l-3.02-8.38"/>
	<path stroke="#4FA645" stroke-width="6" d="M2168.77 1222.66l3-8.39"/>
	<path stroke="#FEC343" stroke-width="6" d="M2105.77 997.747l7.23-6.36M2013.95 932.007l9.61.666M2160.96 1267.39l-3.08 9.12M1917.63 1161.23l-8.66 4.23M1792.77 1030.11l7.23-6.36M1728.5 1216.7l-2.4-9.33"/>
</svg>